<svg xmlns="http://www.w3.org/2000/svg" width="1200" height="630" viewBox="0 0 1200 630">
  <rect width="1200" height="630" fill="#f5f0e5"/>
  <rect x="48" y="48" width="1104" height="534" rx="4" fill="none" stroke="#d8cdb8" stroke-width="2"/>
  <g transform="translate(95 170)">
    <g fill="none" stroke="#174c3f" stroke-width="10">
      <path d="M0 202h205M16 200c38-15 66-15 99 0 33-15 60-15 91 0"/>
      <path d="M34 165V70h130v95M18 73h164M63 70V38h73v32"/>
      <path d="M77 165v-51h46v51"/>
    </g>
    <path d="M167 43c20-20 42-20 61-6-21-1-36 5-47 20" fill="#d89b49"/>
  </g>
  <text x="355" y="286" fill="#174c3f" font-family="Georgia, 'Times New Roman', serif" font-size="92">Milton Point</text>
  <text x="362" y="366" fill="#a84f32" font-family="Arial, Helvetica, sans-serif" font-size="34" font-weight="700" letter-spacing="10">CONSERVANCY</text>
  <line x1="362" y1="407" x2="1050" y2="407" stroke="#d89b49" stroke-width="3"/>
  <text x="362" y="464" fill="#174c3f" font-family="Georgia, 'Times New Roman', serif" font-size="31" font-style="italic">History lives here.</text>
  <text x="99" y="545" fill="#6b7c76" font-family="Arial, Helvetica, sans-serif" font-size="19" letter-spacing="3">RYE, NEW YORK</text>
</svg>
